M48
;Layer_Color=9474304
;FILE_FORMAT=2:5
INCH,LZ
;TYPE=PLATED
T1F00S00C0.01575
T2F00S00C0.03937
T3F00S00C0.04724
T4F00S00C0.11811
%
T01
X0055158Y0045
Y00975
Y01025
X0100157
Y01075
X0127854
X0132663Y0107506
X0137663Y0107494
X01375Y0074409
X012Y01325
X0120158Y0145
Y0155
X0177657Y01025
X0175079Y0075276
X0217657Y009
Y00975
X02175Y01075
X0205157
Y01175
Y01275
X0259874Y0137216
X0260441Y0147784
X0255157Y00975
Y0185
X0270158
X0275157
X0205157Y016
X0177657Y02525
X01775Y026374
X0140157Y02675
X014Y02475
Y02425
X01075Y0205
X01025Y0195
X0120158Y0165
X0057657
Y017
Y0175
Y018
X00725Y02875
X0072658Y0355
X0062657
X0052658
X02425
X02525
X02625
T02
X0075157Y0035
Y0045236
Y0055472
X0066929Y009063
X0086614
X0076929Y013
X0238158
X0247843Y009063
X0228157
X0232658Y02425
X0242657
X0252658
X0262657
Y02725
X0252658
X0242657
X0232658
X0222657
X0212657
X0202658
X0192657
Y02425
X0202658
X0212657
X0222657
X02025Y03025
X01925
X01825
X01725
X01625
X0152657
X0142657
X0132658
X0122658
X0112657
Y02725
X0102657
X0092658
X0082657
X0072658
X0062657
X0052658
Y02425
X0062657
X0072658
X0082657
X0092658
X0102657
X0112657
X0122658
Y02725
Y03625
X0112657
X0132658
X0142657
X0152657
X01625
X01725
X01825
X01925
X02025
T03
X01475Y00125
X01675
T04
X0019685Y0019685
X0295276
X0019685Y0370079
X0295276
M30
