G04*
G04 #@! TF.GenerationSoftware,Altium Limited,Altium Designer,21.5.1 (32)*
G04*
G04 Layer_Color=39423*
%FSLAX25Y25*%
%MOIN*%
G70*
G04*
G04 #@! TF.SameCoordinates,23847DC4-7520-4B4A-9137-17159688AF9F*
G04*
G04*
G04 #@! TF.FilePolarity,Positive*
G04*
G01*
G75*
%ADD11C,0.00787*%
%ADD12C,0.01000*%
%ADD40C,0.02362*%
%ADD52C,0.00984*%
%ADD53R,0.02165X0.06102*%
%ADD54R,0.02165X0.06102*%
%ADD55R,0.02165X0.17306*%
D11*
X151358Y225177D02*
X163957D01*
X151358Y259823D02*
X163957D01*
X151358Y225177D02*
Y259823D01*
X163957Y225177D02*
Y259823D01*
X198957Y72520D02*
X200138D01*
Y54016D02*
Y72520D01*
X198957Y54016D02*
X200138D01*
X185177D02*
Y72520D01*
X186358D01*
X185177Y54016D02*
X186358D01*
X83957Y152677D02*
Y187323D01*
X71358Y152677D02*
Y187323D01*
X83957D01*
X71358Y152677D02*
X83957D01*
X40472Y303563D02*
X79843D01*
X40472Y311437D02*
X79843D01*
Y303563D02*
Y311437D01*
X40472Y303563D02*
Y311437D01*
X230315Y303563D02*
X269685D01*
X230315Y311437D02*
X269685D01*
Y303563D02*
Y311437D01*
X230315Y303563D02*
Y311437D01*
X161713Y264449D02*
Y270551D01*
X156595D02*
X161713D01*
X156595Y264449D02*
X161713D01*
Y274449D02*
Y280551D01*
X156595D02*
X161713D01*
X156595Y274449D02*
X161713D01*
X213720Y176949D02*
Y183051D01*
X208602D02*
X213720D01*
X208602Y176949D02*
X213720D01*
X205079Y58760D02*
Y66240D01*
X225236Y58760D02*
Y66240D01*
X130211Y23855D02*
Y41161D01*
X118252D02*
X130063D01*
X118252Y23839D02*
X130063D01*
X231358Y152677D02*
X243957D01*
X231358Y187323D02*
X243957D01*
X231358Y152677D02*
Y187323D01*
X243957Y152677D02*
Y187323D01*
X231358Y95157D02*
X243957D01*
X231358Y114843D02*
X243957D01*
X231358Y95157D02*
Y114843D01*
X243957Y95157D02*
Y114843D01*
X150630Y57657D02*
X163228D01*
X150630Y77343D02*
X163228D01*
X150630Y57657D02*
Y77343D01*
X163228Y57657D02*
Y77343D01*
X83228Y95157D02*
Y114843D01*
X70630Y95157D02*
Y114843D01*
X83228D01*
X70630Y95157D02*
X83228D01*
X150630D02*
X163228D01*
X150630Y114843D02*
X163228D01*
X150630Y95157D02*
Y114843D01*
X163228Y95157D02*
Y114843D01*
X195620Y23855D02*
Y41161D01*
X183661D02*
X195473D01*
X183661Y23839D02*
X195473D01*
D12*
X122658Y107500D02*
G03*
X122658Y107500I-5000J0D01*
G01*
X98908Y195000D02*
G03*
X98908Y195000I-5000J0D01*
G01*
X45158Y97500D02*
G03*
X45158Y97500I-5000J0D01*
G01*
X284614Y147500D02*
G03*
X284614Y147500I-5000J0D01*
G01*
X210157Y195000D02*
G03*
X210157Y195000I-5000J0D01*
G01*
X115157Y132500D02*
G03*
X115157Y132500I-5000J0D01*
G01*
X97658Y227500D02*
G03*
X97658Y227500I-5000J0D01*
G01*
X222657Y145000D02*
G03*
X222657Y145000I-5000J0D01*
G01*
X255157Y57500D02*
G03*
X255157Y57500I-5000J0D01*
G01*
X107658Y107500D02*
X112657D01*
X93907Y185000D02*
Y190000D01*
X45158Y97500D02*
X50157D01*
X269614Y147500D02*
X274614D01*
X210157Y195000D02*
X215158D01*
X115157Y132500D02*
X120158D01*
X92658Y232500D02*
Y237500D01*
X207658Y145000D02*
X212657D01*
X250157Y47500D02*
Y52500D01*
X102654Y309751D02*
X100655D01*
X101655D01*
Y303753D01*
X102654D01*
X100655D01*
X93657Y308751D02*
X94657Y309751D01*
X96656D01*
X97656Y308751D01*
Y304753D01*
X96656Y303753D01*
X94657D01*
X93657Y304753D01*
X91658Y303753D02*
X89658D01*
X90658D01*
Y309751D01*
X91658Y308751D01*
X82661Y303753D02*
X86659D01*
X82661Y307752D01*
Y308751D01*
X83660Y309751D01*
X85660D01*
X86659Y308751D01*
X197997Y147999D02*
X193999D01*
X195998D01*
Y142001D01*
X191999D02*
Y147999D01*
X189000D01*
X188001Y146999D01*
Y145000D01*
X189000Y144000D01*
X191999D01*
X186001Y147999D02*
X182003D01*
Y146999D01*
X186001Y143001D01*
Y142001D01*
X197997Y182999D02*
Y179000D01*
X195998Y177001D01*
X193999Y179000D01*
Y182999D01*
X191999D02*
Y177001D01*
X189000D01*
X188001Y178001D01*
Y181999D01*
X189000Y182999D01*
X191999D01*
X183002Y177001D02*
Y182999D01*
X186001Y180000D01*
X182003D01*
X185497Y272999D02*
Y269000D01*
X183498Y267001D01*
X181499Y269000D01*
Y272999D01*
X179499D02*
Y267001D01*
X176500D01*
X175501Y268001D01*
Y271999D01*
X176500Y272999D01*
X179499D01*
X173501Y271999D02*
X172502Y272999D01*
X170502D01*
X169503Y271999D01*
Y271000D01*
X170502Y270000D01*
X171502D01*
X170502D01*
X169503Y269000D01*
Y268001D01*
X170502Y267001D01*
X172502D01*
X173501Y268001D01*
X145655Y280499D02*
Y276500D01*
X143656Y274501D01*
X141656Y276500D01*
Y280499D01*
X139657D02*
Y274501D01*
X136658D01*
X135658Y275501D01*
Y279499D01*
X136658Y280499D01*
X139657D01*
X129660Y274501D02*
X133659D01*
X129660Y278500D01*
Y279499D01*
X130660Y280499D01*
X132659D01*
X133659Y279499D01*
X199498Y87999D02*
Y84000D01*
X197498Y82001D01*
X195499Y84000D01*
Y87999D01*
X193500D02*
Y82001D01*
X190501D01*
X189501Y83001D01*
Y86999D01*
X190501Y87999D01*
X193500D01*
X187502Y82001D02*
X185502D01*
X186502D01*
Y87999D01*
X187502Y86999D01*
X83155Y230499D02*
X79156D01*
X81156D01*
Y224501D01*
X77157D02*
Y230499D01*
X74158D01*
X73158Y229499D01*
Y227500D01*
X74158Y226500D01*
X77157D01*
X71159Y225501D02*
X70159Y224501D01*
X68160D01*
X67160Y225501D01*
Y229499D01*
X68160Y230499D01*
X70159D01*
X71159Y229499D01*
Y228500D01*
X70159Y227500D01*
X67160D01*
X198155Y197999D02*
X194156D01*
X196156D01*
Y192001D01*
X192157D02*
Y197999D01*
X189158D01*
X188158Y196999D01*
Y195000D01*
X189158Y194000D01*
X192157D01*
X186159Y196999D02*
X185159Y197999D01*
X183160D01*
X182160Y196999D01*
Y196000D01*
X183160Y195000D01*
X182160Y194000D01*
Y193001D01*
X183160Y192001D01*
X185159D01*
X186159Y193001D01*
Y194000D01*
X185159Y195000D01*
X186159Y196000D01*
Y196999D01*
X185159Y195000D02*
X183160D01*
X258421Y72733D02*
X254422D01*
X256421D01*
Y66735D01*
X252423D02*
Y72733D01*
X249424D01*
X248424Y71734D01*
Y69734D01*
X249424Y68735D01*
X252423D01*
X242426Y72733D02*
X244425Y71734D01*
X246425Y69734D01*
Y67735D01*
X245425Y66735D01*
X243425D01*
X242426Y67735D01*
Y68735D01*
X243425Y69734D01*
X246425D01*
X100497Y140499D02*
X96499D01*
X98498D01*
Y134501D01*
X94499D02*
Y140499D01*
X91500D01*
X90501Y139499D01*
Y137500D01*
X91500Y136500D01*
X94499D01*
X84503Y140499D02*
X88501D01*
Y137500D01*
X86502Y138500D01*
X85502D01*
X84503Y137500D01*
Y135501D01*
X85502Y134501D01*
X87502D01*
X88501Y135501D01*
X125497Y122999D02*
X121499D01*
X123498D01*
Y117001D01*
X119499D02*
Y122999D01*
X116500D01*
X115501Y121999D01*
Y120000D01*
X116500Y119000D01*
X119499D01*
X110502Y117001D02*
Y122999D01*
X113501Y120000D01*
X109503D01*
X284100Y161998D02*
X280101D01*
X282101D01*
Y156000D01*
X278102D02*
Y161998D01*
X275103D01*
X274103Y160998D01*
Y158999D01*
X275103Y157999D01*
X278102D01*
X272104Y160998D02*
X271104Y161998D01*
X269105D01*
X268105Y160998D01*
Y159999D01*
X269105Y158999D01*
X270105D01*
X269105D01*
X268105Y157999D01*
Y157000D01*
X269105Y156000D01*
X271104D01*
X272104Y157000D01*
X103155Y207999D02*
X99156D01*
X101156D01*
Y202001D01*
X97157D02*
Y207999D01*
X94158D01*
X93158Y206999D01*
Y205000D01*
X94158Y204000D01*
X97157D01*
X87160Y202001D02*
X91159D01*
X87160Y206000D01*
Y206999D01*
X88160Y207999D01*
X90159D01*
X91159Y206999D01*
X32814Y100606D02*
X28816D01*
X30815D01*
Y94608D01*
X26816D02*
Y100606D01*
X23817D01*
X22818Y99606D01*
Y97607D01*
X23817Y96607D01*
X26816D01*
X20818Y94608D02*
X18819D01*
X19819D01*
Y100606D01*
X20818Y99606D01*
X29658Y322003D02*
X35656D01*
Y325002D01*
X34657Y326001D01*
X32658D01*
X31658Y325002D01*
Y322003D01*
Y324002D02*
X29658Y326001D01*
X34657Y328001D02*
X35656Y329000D01*
Y331000D01*
X34657Y331999D01*
X33657D01*
X32658Y331000D01*
Y330000D01*
Y331000D01*
X31658Y331999D01*
X30658D01*
X29658Y331000D01*
Y329000D01*
X30658Y328001D01*
Y333999D02*
X29658Y334998D01*
Y336998D01*
X30658Y337997D01*
X34657D01*
X35656Y336998D01*
Y334998D01*
X34657Y333999D01*
X33657D01*
X32658Y334998D01*
Y337997D01*
X39658Y322003D02*
X45656D01*
Y325002D01*
X44657Y326001D01*
X42658D01*
X41658Y325002D01*
Y322003D01*
Y324002D02*
X39658Y326001D01*
X44657Y328001D02*
X45656Y329000D01*
Y331000D01*
X44657Y331999D01*
X43657D01*
X42658Y331000D01*
Y330000D01*
Y331000D01*
X41658Y331999D01*
X40658D01*
X39658Y331000D01*
Y329000D01*
X40658Y328001D01*
X44657Y333999D02*
X45656Y334998D01*
Y336998D01*
X44657Y337997D01*
X43657D01*
X42658Y336998D01*
X41658Y337997D01*
X40658D01*
X39658Y336998D01*
Y334998D01*
X40658Y333999D01*
X41658D01*
X42658Y334998D01*
X43657Y333999D01*
X44657D01*
X42658Y334998D02*
Y336998D01*
X49659Y322003D02*
X55656D01*
Y325002D01*
X54657Y326001D01*
X52658D01*
X51658Y325002D01*
Y322003D01*
Y324002D02*
X49659Y326001D01*
X54657Y328001D02*
X55656Y329000D01*
Y331000D01*
X54657Y331999D01*
X53657D01*
X52658Y331000D01*
Y330000D01*
Y331000D01*
X51658Y331999D01*
X50658D01*
X49659Y331000D01*
Y329000D01*
X50658Y328001D01*
X55656Y333999D02*
Y337997D01*
X54657D01*
X50658Y333999D01*
X49659D01*
X59658Y322003D02*
X65657D01*
Y325002D01*
X64657Y326001D01*
X62657D01*
X61658Y325002D01*
Y322003D01*
Y324002D02*
X59658Y326001D01*
X64657Y328001D02*
X65657Y329000D01*
Y331000D01*
X64657Y331999D01*
X63657D01*
X62657Y331000D01*
Y330000D01*
Y331000D01*
X61658Y331999D01*
X60658D01*
X59658Y331000D01*
Y329000D01*
X60658Y328001D01*
X65657Y337997D02*
X64657Y335998D01*
X62657Y333999D01*
X60658D01*
X59658Y334998D01*
Y336998D01*
X60658Y337997D01*
X61658D01*
X62657Y336998D01*
Y333999D01*
X69658Y322003D02*
X75656D01*
Y325002D01*
X74657Y326001D01*
X72658D01*
X71658Y325002D01*
Y322003D01*
Y324002D02*
X69658Y326001D01*
X74657Y328001D02*
X75656Y329000D01*
Y331000D01*
X74657Y331999D01*
X73657D01*
X72658Y331000D01*
Y330000D01*
Y331000D01*
X71658Y331999D01*
X70658D01*
X69658Y331000D01*
Y329000D01*
X70658Y328001D01*
X75656Y337997D02*
Y333999D01*
X72658D01*
X73657Y335998D01*
Y336998D01*
X72658Y337997D01*
X70658D01*
X69658Y336998D01*
Y334998D01*
X70658Y333999D01*
X79659Y322003D02*
X85656D01*
Y325002D01*
X84657Y326001D01*
X82657D01*
X81658Y325002D01*
Y322003D01*
Y324002D02*
X79659Y326001D01*
X84657Y328001D02*
X85656Y329000D01*
Y331000D01*
X84657Y331999D01*
X83657D01*
X82657Y331000D01*
Y330000D01*
Y331000D01*
X81658Y331999D01*
X80658D01*
X79659Y331000D01*
Y329000D01*
X80658Y328001D01*
X79659Y336998D02*
X85656D01*
X82657Y333999D01*
Y337997D01*
X89658Y322003D02*
X95657D01*
Y325002D01*
X94657Y326001D01*
X92658D01*
X91658Y325002D01*
Y322003D01*
Y324002D02*
X89658Y326001D01*
X94657Y328001D02*
X95657Y329000D01*
Y331000D01*
X94657Y331999D01*
X93657D01*
X92658Y331000D01*
Y330000D01*
Y331000D01*
X91658Y331999D01*
X90658D01*
X89658Y331000D01*
Y329000D01*
X90658Y328001D01*
X94657Y333999D02*
X95657Y334998D01*
Y336998D01*
X94657Y337997D01*
X93657D01*
X92658Y336998D01*
Y335998D01*
Y336998D01*
X91658Y337997D01*
X90658D01*
X89658Y336998D01*
Y334998D01*
X90658Y333999D01*
X219501Y322003D02*
X225499D01*
Y325002D01*
X224499Y326001D01*
X222500D01*
X221500Y325002D01*
Y322003D01*
Y324002D02*
X219501Y326001D01*
X224499Y328001D02*
X225499Y329000D01*
Y331000D01*
X224499Y331999D01*
X223500D01*
X222500Y331000D01*
Y330000D01*
Y331000D01*
X221500Y331999D01*
X220501D01*
X219501Y331000D01*
Y329000D01*
X220501Y328001D01*
X219501Y337997D02*
Y333999D01*
X223500Y337997D01*
X224499D01*
X225499Y336998D01*
Y334998D01*
X224499Y333999D01*
X229501Y323002D02*
X235499D01*
Y326001D01*
X234499Y327001D01*
X232500D01*
X231500Y326001D01*
Y323002D01*
Y325002D02*
X229501Y327001D01*
X234499Y329000D02*
X235499Y330000D01*
Y331999D01*
X234499Y332999D01*
X233500D01*
X232500Y331999D01*
Y331000D01*
Y331999D01*
X231500Y332999D01*
X230501D01*
X229501Y331999D01*
Y330000D01*
X230501Y329000D01*
X229501Y334998D02*
Y336998D01*
Y335998D01*
X235499D01*
X234499Y334998D01*
X239501Y322003D02*
X245499D01*
Y325002D01*
X244499Y326001D01*
X242500D01*
X241500Y325002D01*
Y322003D01*
Y324002D02*
X239501Y326001D01*
X244499Y328001D02*
X245499Y329000D01*
Y331000D01*
X244499Y331999D01*
X243500D01*
X242500Y331000D01*
Y330000D01*
Y331000D01*
X241500Y331999D01*
X240501D01*
X239501Y331000D01*
Y329000D01*
X240501Y328001D01*
X244499Y333999D02*
X245499Y334998D01*
Y336998D01*
X244499Y337997D01*
X240501D01*
X239501Y336998D01*
Y334998D01*
X240501Y333999D01*
X244499D01*
X249501Y322003D02*
X255499D01*
Y325002D01*
X254499Y326001D01*
X252500D01*
X251500Y325002D01*
Y322003D01*
Y324002D02*
X249501Y326001D01*
Y331999D02*
Y328001D01*
X253500Y331999D01*
X254499D01*
X255499Y331000D01*
Y329000D01*
X254499Y328001D01*
X250501Y333999D02*
X249501Y334998D01*
Y336998D01*
X250501Y337997D01*
X254499D01*
X255499Y336998D01*
Y334998D01*
X254499Y333999D01*
X253500D01*
X252500Y334998D01*
Y337997D01*
X259501Y322003D02*
X265499D01*
Y325002D01*
X264499Y326001D01*
X262500D01*
X261500Y325002D01*
Y322003D01*
Y324002D02*
X259501Y326001D01*
Y331999D02*
Y328001D01*
X263500Y331999D01*
X264499D01*
X265499Y331000D01*
Y329000D01*
X264499Y328001D01*
Y333999D02*
X265499Y334998D01*
Y336998D01*
X264499Y337997D01*
X263500D01*
X262500Y336998D01*
X261500Y337997D01*
X260501D01*
X259501Y336998D01*
Y334998D01*
X260501Y333999D01*
X261500D01*
X262500Y334998D01*
X263500Y333999D01*
X264499D01*
X262500Y334998D02*
Y336998D01*
X269501Y322003D02*
X275499D01*
Y325002D01*
X274499Y326001D01*
X272500D01*
X271500Y325002D01*
Y322003D01*
Y324002D02*
X269501Y326001D01*
Y331999D02*
Y328001D01*
X273500Y331999D01*
X274499D01*
X275499Y331000D01*
Y329000D01*
X274499Y328001D01*
X275499Y333999D02*
Y337997D01*
X274499D01*
X270501Y333999D01*
X269501D01*
X279501Y322003D02*
X285499D01*
Y325002D01*
X284499Y326001D01*
X282500D01*
X281500Y325002D01*
Y322003D01*
Y324002D02*
X279501Y326001D01*
Y331999D02*
Y328001D01*
X283500Y331999D01*
X284499D01*
X285499Y331000D01*
Y329000D01*
X284499Y328001D01*
X285499Y337997D02*
X284499Y335998D01*
X282500Y333999D01*
X280501D01*
X279501Y334998D01*
Y336998D01*
X280501Y337997D01*
X281500D01*
X282500Y336998D01*
Y333999D01*
X197997Y167001D02*
Y172999D01*
X194998D01*
X193999Y171999D01*
Y170000D01*
X194998Y169000D01*
X197997D01*
X195998D02*
X193999Y167001D01*
X188001D02*
X191999D01*
X188001Y171000D01*
Y171999D01*
X189000Y172999D01*
X191000D01*
X191999Y171999D01*
X182003Y172999D02*
X186001D01*
Y170000D01*
X184002Y171000D01*
X183002D01*
X182003Y170000D01*
Y168001D01*
X183002Y167001D01*
X185002D01*
X186001Y168001D01*
X187997Y284501D02*
Y290499D01*
X184998D01*
X183999Y289499D01*
Y287500D01*
X184998Y286500D01*
X187997D01*
X185998D02*
X183999Y284501D01*
X178001D02*
X181999D01*
X178001Y288500D01*
Y289499D01*
X179000Y290499D01*
X181000D01*
X181999Y289499D01*
X173002Y284501D02*
Y290499D01*
X176001Y287500D01*
X172003D01*
X170497Y142001D02*
Y147999D01*
X167498D01*
X166499Y146999D01*
Y145000D01*
X167498Y144000D01*
X170497D01*
X168498D02*
X166499Y142001D01*
X160501D02*
X164499D01*
X160501Y146000D01*
Y146999D01*
X161500Y147999D01*
X163500D01*
X164499Y146999D01*
X158501D02*
X157502Y147999D01*
X155502D01*
X154503Y146999D01*
Y146000D01*
X155502Y145000D01*
X156502D01*
X155502D01*
X154503Y144000D01*
Y143001D01*
X155502Y142001D01*
X157502D01*
X158501Y143001D01*
X170655Y152001D02*
Y157999D01*
X167656D01*
X166656Y156999D01*
Y155000D01*
X167656Y154000D01*
X170655D01*
X168656D02*
X166656Y152001D01*
X160658D02*
X164657D01*
X160658Y156000D01*
Y156999D01*
X161658Y157999D01*
X163657D01*
X164657Y156999D01*
X154660Y152001D02*
X158659D01*
X154660Y156000D01*
Y156999D01*
X155660Y157999D01*
X157659D01*
X158659Y156999D01*
X170459Y161958D02*
Y167956D01*
X167460D01*
X166460Y166957D01*
Y164957D01*
X167460Y163958D01*
X170459D01*
X168459D02*
X166460Y161958D01*
X160462D02*
X164461D01*
X160462Y165957D01*
Y166957D01*
X161462Y167956D01*
X163461D01*
X164461Y166957D01*
X158463Y161958D02*
X156463D01*
X157463D01*
Y167956D01*
X158463Y166957D01*
X170497Y172001D02*
Y177999D01*
X167498D01*
X166499Y176999D01*
Y175000D01*
X167498Y174000D01*
X170497D01*
X168498D02*
X166499Y172001D01*
X160501D02*
X164499D01*
X160501Y176000D01*
Y176999D01*
X161500Y177999D01*
X163500D01*
X164499Y176999D01*
X158501D02*
X157502Y177999D01*
X155502D01*
X154503Y176999D01*
Y173001D01*
X155502Y172001D01*
X157502D01*
X158501Y173001D01*
Y176999D01*
X169998Y182001D02*
Y187999D01*
X166999D01*
X165999Y186999D01*
Y185000D01*
X166999Y184000D01*
X169998D01*
X167998D02*
X165999Y182001D01*
X163999D02*
X162000D01*
X163000D01*
Y187999D01*
X163999Y186999D01*
X159001Y183001D02*
X158001Y182001D01*
X156002D01*
X155002Y183001D01*
Y186999D01*
X156002Y187999D01*
X158001D01*
X159001Y186999D01*
Y186000D01*
X158001Y185000D01*
X155002D01*
X169998Y192001D02*
Y197999D01*
X166999D01*
X165999Y196999D01*
Y195000D01*
X166999Y194000D01*
X169998D01*
X167998D02*
X165999Y192001D01*
X163999D02*
X162000D01*
X163000D01*
Y197999D01*
X163999Y196999D01*
X159001D02*
X158001Y197999D01*
X156002D01*
X155002Y196999D01*
Y196000D01*
X156002Y195000D01*
X155002Y194000D01*
Y193001D01*
X156002Y192001D01*
X158001D01*
X159001Y193001D01*
Y194000D01*
X158001Y195000D01*
X159001Y196000D01*
Y196999D01*
X158001Y195000D02*
X156002D01*
X114998Y142001D02*
Y147999D01*
X111998D01*
X110999Y146999D01*
Y145000D01*
X111998Y144000D01*
X114998D01*
X112998D02*
X110999Y142001D01*
X109000D02*
X107000D01*
X108000D01*
Y147999D01*
X109000Y146999D01*
X104001Y147999D02*
X100002D01*
Y146999D01*
X104001Y143001D01*
Y142001D01*
X114998Y152001D02*
Y157999D01*
X111998D01*
X110999Y156999D01*
Y155000D01*
X111998Y154000D01*
X114998D01*
X112998D02*
X110999Y152001D01*
X109000D02*
X107000D01*
X108000D01*
Y157999D01*
X109000Y156999D01*
X100002Y157999D02*
X102002Y156999D01*
X104001Y155000D01*
Y153001D01*
X103001Y152001D01*
X101002D01*
X100002Y153001D01*
Y154000D01*
X101002Y155000D01*
X104001D01*
X114998Y162001D02*
Y167999D01*
X111998D01*
X110999Y166999D01*
Y165000D01*
X111998Y164000D01*
X114998D01*
X112998D02*
X110999Y162001D01*
X109000D02*
X107000D01*
X108000D01*
Y167999D01*
X109000Y166999D01*
X100002Y167999D02*
X104001D01*
Y165000D01*
X102002Y166000D01*
X101002D01*
X100002Y165000D01*
Y163001D01*
X101002Y162001D01*
X103001D01*
X104001Y163001D01*
X120155Y172001D02*
Y177999D01*
X117156D01*
X116156Y176999D01*
Y175000D01*
X117156Y174000D01*
X120155D01*
X118156D02*
X116156Y172001D01*
X114157D02*
X112158D01*
X113157D01*
Y177999D01*
X114157Y176999D01*
X106160Y172001D02*
Y177999D01*
X109159Y175000D01*
X105160D01*
X120155Y182001D02*
Y187999D01*
X117156D01*
X116156Y186999D01*
Y185000D01*
X117156Y184000D01*
X120155D01*
X118156D02*
X116156Y182001D01*
X114157D02*
X112158D01*
X113157D01*
Y187999D01*
X114157Y186999D01*
X109159D02*
X108159Y187999D01*
X106160D01*
X105160Y186999D01*
Y186000D01*
X106160Y185000D01*
X107159D01*
X106160D01*
X105160Y184000D01*
Y183001D01*
X106160Y182001D01*
X108159D01*
X109159Y183001D01*
X120155Y192001D02*
Y197999D01*
X117156D01*
X116156Y196999D01*
Y195000D01*
X117156Y194000D01*
X120155D01*
X118156D02*
X116156Y192001D01*
X114157D02*
X112158D01*
X113157D01*
Y197999D01*
X114157Y196999D01*
X105160Y192001D02*
X109159D01*
X105160Y196000D01*
Y196999D01*
X106160Y197999D01*
X108159D01*
X109159Y196999D01*
X170711Y42001D02*
Y47999D01*
X167712D01*
X166712Y46999D01*
Y45000D01*
X167712Y44000D01*
X170711D01*
X168711D02*
X166712Y42001D01*
X164713D02*
X162713D01*
X163713D01*
Y47999D01*
X164713Y46999D01*
X159714Y42001D02*
X157715D01*
X158714D01*
Y47999D01*
X159714Y46999D01*
X155155Y42001D02*
Y47999D01*
X152156D01*
X151156Y46999D01*
Y45000D01*
X152156Y44000D01*
X155155D01*
X153156D02*
X151156Y42001D01*
X149157D02*
X147158D01*
X148157D01*
Y47999D01*
X149157Y46999D01*
X144159D02*
X143159Y47999D01*
X141160D01*
X140160Y46999D01*
Y43001D01*
X141160Y42001D01*
X143159D01*
X144159Y43001D01*
Y46999D01*
X292656Y79501D02*
Y85499D01*
X289657D01*
X288657Y84499D01*
Y82500D01*
X289657Y81500D01*
X292656D01*
X290656D02*
X288657Y79501D01*
X286658Y80501D02*
X285658Y79501D01*
X283659D01*
X282659Y80501D01*
Y84499D01*
X283659Y85499D01*
X285658D01*
X286658Y84499D01*
Y83500D01*
X285658Y82500D01*
X282659D01*
X292656Y69501D02*
Y75499D01*
X289657D01*
X288657Y74499D01*
Y72500D01*
X289657Y71500D01*
X292656D01*
X290656D02*
X288657Y69501D01*
X286658Y75499D02*
X282659D01*
Y74499D01*
X286658Y70501D01*
Y69501D01*
X132001Y45002D02*
X137999D01*
Y48001D01*
X136999Y49000D01*
X135000D01*
X134000Y48001D01*
Y45002D01*
Y47001D02*
X132001Y49000D01*
X137999Y54998D02*
X136999Y52999D01*
X135000Y51000D01*
X133001D01*
X132001Y51999D01*
Y53999D01*
X133001Y54998D01*
X134000D01*
X135000Y53999D01*
Y51000D01*
X292656Y89501D02*
Y95499D01*
X289657D01*
X288657Y94499D01*
Y92500D01*
X289657Y91500D01*
X292656D01*
X290656D02*
X288657Y89501D01*
X282659Y95499D02*
X286658D01*
Y92500D01*
X284659Y93500D01*
X283659D01*
X282659Y92500D01*
Y90501D01*
X283659Y89501D01*
X285658D01*
X286658Y90501D01*
X92498Y124501D02*
Y130499D01*
X89499D01*
X88500Y129499D01*
Y127500D01*
X89499Y126500D01*
X92498D01*
X90499D02*
X88500Y124501D01*
X86500Y129499D02*
X85501Y130499D01*
X83501D01*
X82502Y129499D01*
Y128500D01*
X83501Y127500D01*
X84501D01*
X83501D01*
X82502Y126500D01*
Y125501D01*
X83501Y124501D01*
X85501D01*
X86500Y125501D01*
X183988Y105560D02*
Y111558D01*
X180989D01*
X179989Y110558D01*
Y108559D01*
X180989Y107559D01*
X183988D01*
X181989D02*
X179989Y105560D01*
X173991D02*
X177990D01*
X173991Y109558D01*
Y110558D01*
X174991Y111558D01*
X176990D01*
X177990Y110558D01*
X208999Y94501D02*
Y100499D01*
X206000D01*
X205000Y99499D01*
Y97500D01*
X206000Y96500D01*
X208999D01*
X206999D02*
X205000Y94501D01*
X203001D02*
X201001D01*
X202001D01*
Y100499D01*
X203001Y99499D01*
X219156Y83767D02*
Y77769D01*
X215158D01*
X213158D02*
X211159D01*
X212158D01*
Y83767D01*
X213158Y82767D01*
X288500Y115499D02*
X290499D01*
X289499D01*
Y110501D01*
X290499Y109501D01*
X291499D01*
X292498Y110501D01*
X282502Y109501D02*
X286500D01*
X282502Y113500D01*
Y114499D01*
X283501Y115499D01*
X285501D01*
X286500Y114499D01*
X287500Y125499D02*
X289499D01*
X288500D01*
Y120501D01*
X289499Y119501D01*
X290499D01*
X291499Y120501D01*
X285501Y119501D02*
X283501D01*
X284501D01*
Y125499D01*
X285501Y124499D01*
X291497Y312251D02*
X289498D01*
X290497D01*
Y306253D01*
X291497D01*
X289498D01*
X282500Y311251D02*
X283500Y312251D01*
X285499D01*
X286499Y311251D01*
Y307253D01*
X285499Y306253D01*
X283500D01*
X282500Y307253D01*
X280501Y306253D02*
X278501D01*
X279501D01*
Y312251D01*
X280501Y311251D01*
X275502Y306253D02*
X273503D01*
X274503D01*
Y312251D01*
X275502Y311251D01*
X244998Y150499D02*
X242998D01*
X243998D01*
Y144501D01*
X244998D01*
X242998D01*
X236000Y149499D02*
X237000Y150499D01*
X239000D01*
X239999Y149499D01*
Y145501D01*
X239000Y144501D01*
X237000D01*
X236000Y145501D01*
X234001Y149499D02*
X233001Y150499D01*
X231002D01*
X230002Y149499D01*
Y148500D01*
X231002Y147500D01*
X230002Y146500D01*
Y145501D01*
X231002Y144501D01*
X233001D01*
X234001Y145501D01*
Y146500D01*
X233001Y147500D01*
X234001Y148500D01*
Y149499D01*
X233001Y147500D02*
X231002D01*
X164998Y222999D02*
X162998D01*
X163998D01*
Y217001D01*
X164998D01*
X162998D01*
X156000Y221999D02*
X157000Y222999D01*
X159000D01*
X159999Y221999D01*
Y218001D01*
X159000Y217001D01*
X157000D01*
X156000Y218001D01*
X154001Y222999D02*
X150002D01*
Y221999D01*
X154001Y218001D01*
Y217001D01*
X84998Y150499D02*
X82998D01*
X83998D01*
Y144501D01*
X84998D01*
X82998D01*
X76000Y149499D02*
X77000Y150499D01*
X79000D01*
X79999Y149499D01*
Y145501D01*
X79000Y144501D01*
X77000D01*
X76000Y145501D01*
X70002Y150499D02*
X72002Y149499D01*
X74001Y147500D01*
Y145501D01*
X73001Y144501D01*
X71002D01*
X70002Y145501D01*
Y146500D01*
X71002Y147500D01*
X74001D01*
X259427Y125499D02*
X257427D01*
X258427D01*
Y119501D01*
X259427D01*
X257427D01*
X250430Y124499D02*
X251429Y125499D01*
X253429D01*
X254428Y124499D01*
Y120501D01*
X253429Y119501D01*
X251429D01*
X250430Y120501D01*
X244431Y125499D02*
X248430D01*
Y122500D01*
X246431Y123500D01*
X245431D01*
X244431Y122500D01*
Y120501D01*
X245431Y119501D01*
X247430D01*
X248430Y120501D01*
X165155Y85499D02*
X163156D01*
X164155D01*
Y79501D01*
X165155D01*
X163156D01*
X156158Y84499D02*
X157158Y85499D01*
X159157D01*
X160157Y84499D01*
Y80501D01*
X159157Y79501D01*
X157158D01*
X156158Y80501D01*
X151160Y79501D02*
Y85499D01*
X154159Y82500D01*
X150160D01*
X57655Y117999D02*
X55656D01*
X56655D01*
Y112001D01*
X57655D01*
X55656D01*
X48658Y116999D02*
X49658Y117999D01*
X51657D01*
X52657Y116999D01*
Y113001D01*
X51657Y112001D01*
X49658D01*
X48658Y113001D01*
X46659Y116999D02*
X45659Y117999D01*
X43660D01*
X42660Y116999D01*
Y116000D01*
X43660Y115000D01*
X44659D01*
X43660D01*
X42660Y114000D01*
Y113001D01*
X43660Y112001D01*
X45659D01*
X46659Y113001D01*
X147655Y125499D02*
X145656D01*
X146655D01*
Y119501D01*
X147655D01*
X145656D01*
X138658Y124499D02*
X139658Y125499D01*
X141657D01*
X142657Y124499D01*
Y120501D01*
X141657Y119501D01*
X139658D01*
X138658Y120501D01*
X132660Y119501D02*
X136659D01*
X132660Y123500D01*
Y124499D01*
X133660Y125499D01*
X135659D01*
X136659Y124499D01*
X193499Y161999D02*
X194499Y162999D01*
X196498D01*
X197498Y161999D01*
Y158001D01*
X196498Y157001D01*
X194499D01*
X193499Y158001D01*
X191499Y157001D02*
X189500D01*
X190500D01*
Y162999D01*
X191499Y161999D01*
X186501Y162999D02*
X182502D01*
Y161999D01*
X186501Y158001D01*
Y157001D01*
X65999Y129499D02*
X66998Y130499D01*
X68998D01*
X69998Y129499D01*
Y125501D01*
X68998Y124501D01*
X66998D01*
X65999Y125501D01*
X63999Y124501D02*
X62000D01*
X63000D01*
Y130499D01*
X63999Y129499D01*
X55002Y130499D02*
X57002Y129499D01*
X59001Y127500D01*
Y125501D01*
X58001Y124501D01*
X56002D01*
X55002Y125501D01*
Y126500D01*
X56002Y127500D01*
X59001D01*
X158701Y133998D02*
X159701Y134998D01*
X161700D01*
X162700Y133998D01*
Y130000D01*
X161700Y129000D01*
X159701D01*
X158701Y130000D01*
X156702Y129000D02*
X154703D01*
X155702D01*
Y134998D01*
X156702Y133998D01*
X147705Y134998D02*
X151704D01*
Y131999D01*
X149704Y132999D01*
X148705D01*
X147705Y131999D01*
Y130000D01*
X148705Y129000D01*
X150704D01*
X151704Y130000D01*
X220152Y136999D02*
X221152Y137999D01*
X223151D01*
X224151Y136999D01*
Y133001D01*
X223151Y132001D01*
X221152D01*
X220152Y133001D01*
X218153Y132001D02*
X216154D01*
X217153D01*
Y137999D01*
X218153Y136999D01*
X210156Y132001D02*
Y137999D01*
X213155Y135000D01*
X209156D01*
X81156Y206999D02*
X82156Y207999D01*
X84155D01*
X85155Y206999D01*
Y203001D01*
X84155Y202001D01*
X82156D01*
X81156Y203001D01*
X79157Y202001D02*
X77158D01*
X78157D01*
Y207999D01*
X79157Y206999D01*
X74159D02*
X73159Y207999D01*
X71160D01*
X70160Y206999D01*
Y206000D01*
X71160Y205000D01*
X72159D01*
X71160D01*
X70160Y204000D01*
Y203001D01*
X71160Y202001D01*
X73159D01*
X74159Y203001D01*
X241156Y206999D02*
X242156Y207999D01*
X244155D01*
X245155Y206999D01*
Y203001D01*
X244155Y202001D01*
X242156D01*
X241156Y203001D01*
X239157Y202001D02*
X237158D01*
X238157D01*
Y207999D01*
X239157Y206999D01*
X230160Y202001D02*
X234159D01*
X230160Y206000D01*
Y206999D01*
X231160Y207999D01*
X233159D01*
X234159Y206999D01*
X36161Y259499D02*
X37160Y260499D01*
X39160D01*
X40159Y259499D01*
Y255501D01*
X39160Y254501D01*
X37160D01*
X36161Y255501D01*
X34161Y254501D02*
X32162D01*
X33162D01*
Y260499D01*
X34161Y259499D01*
X29163Y254501D02*
X27164D01*
X28163D01*
Y260499D01*
X29163Y259499D01*
X135999Y289499D02*
X136999Y290499D01*
X138998D01*
X139998Y289499D01*
Y285501D01*
X138998Y284501D01*
X136999D01*
X135999Y285501D01*
X134000Y284501D02*
X132000D01*
X133000D01*
Y290499D01*
X134000Y289499D01*
X129001D02*
X128001Y290499D01*
X126002D01*
X125003Y289499D01*
Y285501D01*
X126002Y284501D01*
X128001D01*
X129001Y285501D01*
Y289499D01*
X211000Y259499D02*
X211999Y260499D01*
X213999D01*
X214998Y259499D01*
Y255501D01*
X213999Y254501D01*
X211999D01*
X211000Y255501D01*
X209000D02*
X208001Y254501D01*
X206001D01*
X205002Y255501D01*
Y259499D01*
X206001Y260499D01*
X208001D01*
X209000Y259499D01*
Y258500D01*
X208001Y257500D01*
X205002D01*
X24499Y306500D02*
X25499Y305501D01*
Y303501D01*
X24499Y302502D01*
X20501D01*
X19501Y303501D01*
Y305501D01*
X20501Y306500D01*
X24499Y308500D02*
X25499Y309499D01*
Y311499D01*
X24499Y312498D01*
X23500D01*
X22500Y311499D01*
X21500Y312498D01*
X20501D01*
X19501Y311499D01*
Y309499D01*
X20501Y308500D01*
X21500D01*
X22500Y309499D01*
X23500Y308500D01*
X24499D01*
X22500Y309499D02*
Y311499D01*
X216157Y34499D02*
X217157Y35499D01*
X219156D01*
X220156Y34499D01*
Y30501D01*
X219156Y29501D01*
X217157D01*
X216157Y30501D01*
X214158Y35499D02*
X210159D01*
Y34499D01*
X214158Y30501D01*
Y29501D01*
X216999Y306500D02*
X217999Y305501D01*
Y303501D01*
X216999Y302502D01*
X213001D01*
X212001Y303501D01*
Y305501D01*
X213001Y306500D01*
X217999Y312498D02*
X216999Y310499D01*
X215000Y308500D01*
X213001D01*
X212001Y309499D01*
Y311499D01*
X213001Y312498D01*
X214000D01*
X215000Y311499D01*
Y308500D01*
X288657Y104499D02*
X289657Y105499D01*
X291656D01*
X292656Y104499D01*
Y100501D01*
X291656Y99501D01*
X289657D01*
X288657Y100501D01*
X282659Y105499D02*
X286658D01*
Y102500D01*
X284659Y103500D01*
X283659D01*
X282659Y102500D01*
Y100501D01*
X283659Y99501D01*
X285658D01*
X286658Y100501D01*
X181000Y129499D02*
X181999Y130499D01*
X183999D01*
X184998Y129499D01*
Y125501D01*
X183999Y124501D01*
X181999D01*
X181000Y125501D01*
X176001Y124501D02*
Y130499D01*
X179000Y127500D01*
X175002D01*
X179499Y49000D02*
X180499Y48001D01*
Y46001D01*
X179499Y45002D01*
X175501D01*
X174501Y46001D01*
Y48001D01*
X175501Y49000D01*
X179499Y51000D02*
X180499Y51999D01*
Y53999D01*
X179499Y54998D01*
X178500D01*
X177500Y53999D01*
Y52999D01*
Y53999D01*
X176500Y54998D01*
X175501D01*
X174501Y53999D01*
Y51999D01*
X175501Y51000D01*
X98657Y34499D02*
X99657Y35499D01*
X101656D01*
X102656Y34499D01*
Y30501D01*
X101656Y29501D01*
X99657D01*
X98657Y30501D01*
X92659Y29501D02*
X96658D01*
X92659Y33500D01*
Y34499D01*
X93659Y35499D01*
X95658D01*
X96658Y34499D01*
X180000Y119499D02*
X181000Y120499D01*
X182999D01*
X183999Y119499D01*
Y115501D01*
X182999Y114501D01*
X181000D01*
X180000Y115501D01*
X178001Y114501D02*
X176001D01*
X177001D01*
Y120499D01*
X178001Y119499D01*
D40*
X161201Y255886D02*
G03*
X161201Y255886I-1181J0D01*
G01*
X81201Y183386D02*
G03*
X81201Y183386I-1181J0D01*
G01*
X241201D02*
G03*
X241201Y183386I-1181J0D01*
G01*
Y110906D02*
G03*
X241201Y110906I-1181J0D01*
G01*
X160472Y73405D02*
G03*
X160472Y73405I-1181J0D01*
G01*
X80472Y110906D02*
G03*
X80472Y110906I-1181J0D01*
G01*
X160472D02*
G03*
X160472Y110906I-1181J0D01*
G01*
D52*
X168878Y260846D02*
G03*
X168878Y260846I-492J0D01*
G01*
X186260Y76457D02*
G03*
X186260Y76457I-492J0D01*
G01*
X88878Y188347D02*
G03*
X88878Y188347I-492J0D01*
G01*
X81496Y298248D02*
G03*
X81496Y298248I-492J0D01*
G01*
X271339D02*
G03*
X271339Y298248I-492J0D01*
G01*
X141650Y24500D02*
G03*
X141650Y24500I-492J0D01*
G01*
X248878Y188347D02*
G03*
X248878Y188347I-492J0D01*
G01*
Y115847D02*
G03*
X248878Y115847I-492J0D01*
G01*
X168150Y78347D02*
G03*
X168150Y78347I-492J0D01*
G01*
X88150Y115847D02*
G03*
X88150Y115847I-492J0D01*
G01*
X168150D02*
G03*
X168150Y115847I-492J0D01*
G01*
X207059Y24500D02*
G03*
X207059Y24500I-492J0D01*
G01*
D53*
X160629Y267500D02*
D03*
D54*
X160630Y277500D02*
D03*
X212638Y180000D02*
D03*
D55*
X129127Y32508D02*
D03*
X194537D02*
D03*
M02*
