G04*
G04 #@! TF.GenerationSoftware,Altium Limited,Altium Designer,21.5.1 (32)*
G04*
G04 Layer_Physical_Order=1*
G04 Layer_Color=255*
%FSLAX25Y25*%
%MOIN*%
G70*
G04*
G04 #@! TF.SameCoordinates,23847DC4-7520-4B4A-9137-17159688AF9F*
G04*
G04*
G04 #@! TF.FilePolarity,Positive*
G04*
G01*
G75*
%ADD21C,0.01575*%
%ADD22O,0.06299X0.08661*%
%ADD23R,0.06299X0.06299*%
%ADD24C,0.06299*%
%ADD25C,0.07874*%
%ADD26R,0.07874X0.07874*%
%ADD27C,0.19685*%
%ADD28C,0.03543*%
D21*
X162657Y350000D02*
X167657Y355000D01*
X162657Y302500D02*
Y350000D01*
X120000Y105157D02*
X127657Y97500D01*
X120000Y105157D02*
Y132500D01*
X177657Y235000D02*
Y252500D01*
Y235000D02*
X182658Y230000D01*
X143898Y243423D02*
Y250318D01*
X116240Y251240D02*
X142975D01*
X143898Y250318D01*
X139711Y247500D02*
X140000D01*
X107500Y215289D02*
X139711Y247500D01*
X140000Y242500D02*
X142975D01*
X143898Y243423D01*
X107500Y205000D02*
Y215289D01*
X82657Y165000D02*
X120158D01*
X67658Y180000D02*
X82657Y165000D01*
X67658Y170000D02*
X82657Y155000D01*
X120158D01*
X137677Y74587D02*
X142421D01*
X142579Y74744D01*
X137500Y74409D02*
X137677Y74587D01*
X112657Y247657D02*
X116240Y251240D01*
X112657Y242500D02*
Y247657D01*
X92658Y272500D02*
Y282343D01*
X87500Y287500D02*
X92658Y282343D01*
X72500Y287500D02*
X87500D01*
X102500Y195000D02*
X237657D01*
X142579Y74744D02*
X170157D01*
X170689Y75276D01*
X175079D01*
X205155Y107497D02*
X205157Y107500D01*
X137657Y117500D02*
X205157D01*
X137666Y107497D02*
X205155D01*
X127657Y97500D02*
X217657D01*
X127657Y107697D02*
Y117500D01*
Y107697D02*
X127854Y107500D01*
X215158Y260000D02*
X232658Y242500D01*
X231417Y263740D02*
X252658Y242500D01*
X77579Y252421D02*
X85158Y260000D01*
X177500Y263740D02*
X231417D01*
X85158Y260000D02*
X215158D01*
X82657Y251381D02*
X87674Y256398D01*
X222657Y242500D02*
X260157Y205000D01*
X87674Y256398D02*
X208760D01*
X222657Y242500D01*
X62657Y350922D02*
X63580Y350000D01*
X118281D01*
X52658Y347500D02*
Y355000D01*
X62657Y350922D02*
Y355000D01*
X72658D02*
X137657D01*
X55158Y205000D02*
X107500D01*
X205157Y142500D02*
X217500Y130157D01*
Y107500D02*
Y130157D01*
X252658Y350922D02*
Y355000D01*
X167657D02*
X242657D01*
X262657Y345922D02*
Y355000D01*
X251735Y350000D02*
X252658Y350922D01*
X76929Y113071D02*
X87500Y102500D01*
X55158D02*
X87500D01*
X76929Y113071D02*
Y130000D01*
X87500Y102500D02*
X100157D01*
X52658Y347500D02*
X55158Y345000D01*
X142657Y302500D02*
Y350000D01*
X137657Y355000D02*
X142657Y350000D01*
X118281D02*
X122658Y345623D01*
X55158Y345000D02*
X111735D01*
X112657Y302500D02*
Y344077D01*
X122658Y302500D02*
Y345623D01*
X111735Y345000D02*
X112657Y344077D01*
X172658Y345000D02*
X177657Y350000D01*
X172658Y302500D02*
Y345000D01*
X177657Y350000D02*
X251735D01*
X192657Y302500D02*
Y344077D01*
X193580Y345000D01*
X261735D01*
X262657Y345922D01*
X140157Y267500D02*
X250157D01*
X275157Y242500D01*
X220158Y230000D02*
X250157Y200000D01*
X182658Y230000D02*
X220158D01*
X195158Y235000D02*
X222657D01*
X192657Y237500D02*
X195158Y235000D01*
X222657D02*
X255157Y202500D01*
X192657Y237500D02*
Y242500D01*
X77579Y238422D02*
Y252421D01*
X237657Y195000D02*
X250157Y182500D01*
X205157Y142500D02*
Y160000D01*
X137657Y127500D02*
X205157D01*
X115157Y90000D02*
X217657D01*
X112657Y92500D02*
X115157Y90000D01*
X78501Y237500D02*
X91735D01*
X92658Y238422D02*
Y242500D01*
X91735Y237500D02*
X92658Y238422D01*
X77579D02*
X78501Y237500D01*
X82657Y242500D02*
Y251381D01*
X250157Y182500D02*
Y200000D01*
Y102500D02*
Y182500D01*
X177657Y102500D02*
X250157D01*
X255157Y97500D01*
Y185000D02*
Y202500D01*
X50157Y200000D02*
X55158Y205000D01*
X50157Y177500D02*
Y200000D01*
X100157Y107500D02*
X110158D01*
X112657Y92500D02*
Y105000D01*
X110158Y107500D02*
X112657Y105000D01*
X127657Y117500D02*
X137657Y127500D01*
X132761Y112604D02*
X137657Y117500D01*
X132761Y107604D02*
Y112604D01*
X265158Y138139D02*
Y210000D01*
X264235Y137216D02*
X265158Y138139D01*
X259874Y137216D02*
X264235D01*
X232658Y242500D02*
X265158Y210000D01*
X260157Y148068D02*
X260441Y147784D01*
X260157Y148068D02*
Y205000D01*
X270158Y185000D02*
Y215000D01*
X242657Y242500D02*
X270158Y215000D01*
X275157Y185000D02*
Y242500D01*
X132663Y107506D02*
X132761Y107604D01*
X137663Y107494D02*
X137666Y107497D01*
X55158Y45000D02*
Y97500D01*
X50157Y177500D02*
X52658Y175000D01*
X57657D01*
Y180000D02*
X67658D01*
X57657Y165000D02*
X62657D01*
X82657Y145000D01*
X120158D01*
X57657Y170000D02*
X67658D01*
D22*
X112657Y302500D02*
D03*
Y362500D02*
D03*
X122658Y302500D02*
D03*
Y362500D02*
D03*
X132658D02*
D03*
Y302500D02*
D03*
X142657Y362500D02*
D03*
Y302500D02*
D03*
X152657D02*
D03*
Y362500D02*
D03*
X162500Y302500D02*
D03*
Y362500D02*
D03*
X172500Y302500D02*
D03*
Y362500D02*
D03*
X182500D02*
D03*
Y302500D02*
D03*
X192500Y362500D02*
D03*
Y302500D02*
D03*
X202500D02*
D03*
Y362500D02*
D03*
D23*
X52658Y242500D02*
D03*
X192657D02*
D03*
X75157Y55472D02*
D03*
D24*
X62657Y242500D02*
D03*
X72658D02*
D03*
X82657D02*
D03*
X92658D02*
D03*
X102657D02*
D03*
X112657D02*
D03*
X122658D02*
D03*
X52658Y272500D02*
D03*
X62657D02*
D03*
X72658D02*
D03*
X82657D02*
D03*
X92658D02*
D03*
X102657D02*
D03*
X112657D02*
D03*
X122658D02*
D03*
X262657D02*
D03*
X252658D02*
D03*
X242657D02*
D03*
X232658D02*
D03*
X222657D02*
D03*
X212657D02*
D03*
X202658D02*
D03*
X192657D02*
D03*
X262657Y242500D02*
D03*
X252658D02*
D03*
X242657D02*
D03*
X232658D02*
D03*
X222657D02*
D03*
X212657D02*
D03*
X202658D02*
D03*
X75157Y35000D02*
D03*
Y45236D02*
D03*
D25*
X247843Y90630D02*
D03*
X228157D02*
D03*
X238158Y130000D02*
D03*
X147500Y12500D02*
D03*
X76929Y130000D02*
D03*
X66929Y90630D02*
D03*
X86614D02*
D03*
D26*
X167500Y12500D02*
D03*
D27*
X295276Y19685D02*
D03*
Y370079D02*
D03*
X19685D02*
D03*
Y19685D02*
D03*
D28*
X120000Y132500D02*
D03*
X177657Y252500D02*
D03*
X140000Y247500D02*
D03*
Y242500D02*
D03*
X120158Y165000D02*
D03*
X137500Y74409D02*
D03*
X72500Y287500D02*
D03*
X102500Y195000D02*
D03*
X175079Y75276D02*
D03*
X205157Y107500D02*
D03*
Y117500D02*
D03*
X217657Y97500D02*
D03*
X259874Y137216D02*
D03*
X127854Y107500D02*
D03*
X177500Y263740D02*
D03*
X72658Y355000D02*
D03*
X52658D02*
D03*
X62657D02*
D03*
X107500Y205000D02*
D03*
X217500Y107500D02*
D03*
X252500Y355000D02*
D03*
X242500D02*
D03*
X262500D02*
D03*
X205157Y127500D02*
D03*
X217657Y90000D02*
D03*
X140157Y267500D02*
D03*
X255157Y185000D02*
D03*
X260441Y147784D02*
D03*
X270158Y185000D02*
D03*
X275157D02*
D03*
X137663Y107494D02*
D03*
X132663Y107506D02*
D03*
X177657Y102500D02*
D03*
X255157Y97500D02*
D03*
X205157Y160000D02*
D03*
X100157Y102500D02*
D03*
Y107500D02*
D03*
X55158Y97500D02*
D03*
Y45000D02*
D03*
Y102500D02*
D03*
X57657Y175000D02*
D03*
Y180000D02*
D03*
Y165000D02*
D03*
X120158Y145000D02*
D03*
X57657Y170000D02*
D03*
X120158Y155000D02*
D03*
M02*
