G04*
G04 #@! TF.GenerationSoftware,Altium Limited,Altium Designer,21.5.1 (32)*
G04*
G04 Layer_Color=16711935*
%FSLAX25Y25*%
%MOIN*%
G70*
G04*
G04 #@! TF.SameCoordinates,23847DC4-7520-4B4A-9137-17159688AF9F*
G04*
G04*
G04 #@! TF.FilePolarity,Negative*
G04*
G01*
G75*
%ADD14O,0.07099X0.09461*%
%ADD15R,0.07099X0.07099*%
%ADD16C,0.07099*%
%ADD17C,0.08674*%
%ADD18R,0.08674X0.08674*%
%ADD19C,0.20485*%
%ADD20C,0.04343*%
%ADD41R,0.06509X0.03162*%
%ADD42C,0.06800*%
%ADD43R,0.10249X0.12611*%
%ADD44R,0.04934X0.06115*%
%ADD45R,0.03162X0.08280*%
%ADD46R,0.06115X0.04934*%
%ADD47R,0.05524X0.07690*%
%ADD48R,0.21745X0.08713*%
%ADD49R,0.05524X0.06312*%
%ADD50R,0.06312X0.05524*%
%ADD51R,0.09658X0.12611*%
D14*
X112657Y302500D02*
D03*
Y362500D02*
D03*
X122658Y302500D02*
D03*
Y362500D02*
D03*
X132658D02*
D03*
Y302500D02*
D03*
X142657Y362500D02*
D03*
Y302500D02*
D03*
X152657D02*
D03*
Y362500D02*
D03*
X162500Y302500D02*
D03*
Y362500D02*
D03*
X172500Y302500D02*
D03*
Y362500D02*
D03*
X182500D02*
D03*
Y302500D02*
D03*
X192500Y362500D02*
D03*
Y302500D02*
D03*
X202500D02*
D03*
Y362500D02*
D03*
D15*
X52658Y242500D02*
D03*
X192657D02*
D03*
X75157Y55472D02*
D03*
D16*
X62657Y242500D02*
D03*
X72658D02*
D03*
X82657D02*
D03*
X92658D02*
D03*
X102657D02*
D03*
X112657D02*
D03*
X122658D02*
D03*
X52658Y272500D02*
D03*
X62657D02*
D03*
X72658D02*
D03*
X82657D02*
D03*
X92658D02*
D03*
X102657D02*
D03*
X112657D02*
D03*
X122658D02*
D03*
X262657D02*
D03*
X252658D02*
D03*
X242657D02*
D03*
X232658D02*
D03*
X222657D02*
D03*
X212657D02*
D03*
X202658D02*
D03*
X192657D02*
D03*
X262657Y242500D02*
D03*
X252658D02*
D03*
X242657D02*
D03*
X232658D02*
D03*
X222657D02*
D03*
X212657D02*
D03*
X202658D02*
D03*
X75157Y35000D02*
D03*
Y45236D02*
D03*
D17*
X247843Y90630D02*
D03*
X228157D02*
D03*
X238158Y130000D02*
D03*
X147500Y12500D02*
D03*
X76929Y130000D02*
D03*
X66929Y90630D02*
D03*
X86614D02*
D03*
D18*
X167500Y12500D02*
D03*
D19*
X295276Y19685D02*
D03*
Y370079D02*
D03*
X19685D02*
D03*
Y19685D02*
D03*
D20*
X120000Y132500D02*
D03*
X177657Y252500D02*
D03*
X140000Y247500D02*
D03*
Y242500D02*
D03*
X120158Y165000D02*
D03*
X137500Y74409D02*
D03*
X72500Y287500D02*
D03*
X102500Y195000D02*
D03*
X175079Y75276D02*
D03*
X205157Y107500D02*
D03*
Y117500D02*
D03*
X217657Y97500D02*
D03*
X259874Y137216D02*
D03*
X127854Y107500D02*
D03*
X177500Y263740D02*
D03*
X72658Y355000D02*
D03*
X52658D02*
D03*
X62657D02*
D03*
X107500Y205000D02*
D03*
X217500Y107500D02*
D03*
X252500Y355000D02*
D03*
X242500D02*
D03*
X262500D02*
D03*
X205157Y127500D02*
D03*
X217657Y90000D02*
D03*
X140157Y267500D02*
D03*
X255157Y185000D02*
D03*
X260441Y147784D02*
D03*
X270158Y185000D02*
D03*
X275157D02*
D03*
X137663Y107494D02*
D03*
X132663Y107506D02*
D03*
X177657Y102500D02*
D03*
X255157Y97500D02*
D03*
X205157Y160000D02*
D03*
X100157Y102500D02*
D03*
Y107500D02*
D03*
X55158Y97500D02*
D03*
Y45000D02*
D03*
Y102500D02*
D03*
X57657Y175000D02*
D03*
Y180000D02*
D03*
Y165000D02*
D03*
X120158Y145000D02*
D03*
X57657Y170000D02*
D03*
X120158Y155000D02*
D03*
D41*
X146929Y227500D02*
D03*
Y232500D02*
D03*
Y237500D02*
D03*
Y242500D02*
D03*
Y247500D02*
D03*
Y252500D02*
D03*
Y257500D02*
D03*
X168386Y227500D02*
D03*
Y232500D02*
D03*
Y237500D02*
D03*
Y242500D02*
D03*
Y247500D02*
D03*
Y252500D02*
D03*
Y257500D02*
D03*
X88386Y185000D02*
D03*
Y180000D02*
D03*
Y175000D02*
D03*
Y170000D02*
D03*
Y165000D02*
D03*
Y160000D02*
D03*
Y155000D02*
D03*
X66929Y185000D02*
D03*
Y180000D02*
D03*
Y175000D02*
D03*
Y170000D02*
D03*
Y165000D02*
D03*
Y160000D02*
D03*
Y155000D02*
D03*
X226929D02*
D03*
Y160000D02*
D03*
Y165000D02*
D03*
Y170000D02*
D03*
Y175000D02*
D03*
Y180000D02*
D03*
Y185000D02*
D03*
X248386Y155000D02*
D03*
Y160000D02*
D03*
Y165000D02*
D03*
Y170000D02*
D03*
Y175000D02*
D03*
Y180000D02*
D03*
Y185000D02*
D03*
X226929Y97500D02*
D03*
Y102500D02*
D03*
Y107500D02*
D03*
Y112500D02*
D03*
X248386Y97500D02*
D03*
Y102500D02*
D03*
Y107500D02*
D03*
Y112500D02*
D03*
X146201Y60000D02*
D03*
Y65000D02*
D03*
Y70000D02*
D03*
Y75000D02*
D03*
X167657Y60000D02*
D03*
Y65000D02*
D03*
Y70000D02*
D03*
Y75000D02*
D03*
X87657Y112500D02*
D03*
Y107500D02*
D03*
Y102500D02*
D03*
Y97500D02*
D03*
X66201Y112500D02*
D03*
Y107500D02*
D03*
Y102500D02*
D03*
Y97500D02*
D03*
X146201D02*
D03*
Y102500D02*
D03*
Y107500D02*
D03*
Y112500D02*
D03*
X167657Y97500D02*
D03*
Y102500D02*
D03*
Y107500D02*
D03*
Y112500D02*
D03*
D42*
X117657Y107500D02*
D03*
X93907Y195000D02*
D03*
X40157Y97500D02*
D03*
X279614Y147500D02*
D03*
X205157Y195000D02*
D03*
X110158Y132500D02*
D03*
X92658Y227500D02*
D03*
X217657Y145000D02*
D03*
X250157Y57500D02*
D03*
D43*
X192657Y71536D02*
D03*
Y55000D02*
D03*
D44*
X267657Y72500D02*
D03*
X274547D02*
D03*
Y82500D02*
D03*
X267657D02*
D03*
X190157Y107500D02*
D03*
X197047D02*
D03*
X160000Y287500D02*
D03*
X166890D02*
D03*
X146713Y52500D02*
D03*
X153602D02*
D03*
X134547Y175000D02*
D03*
X127657D02*
D03*
X134547Y185000D02*
D03*
X127657D02*
D03*
X134547Y195000D02*
D03*
X127657D02*
D03*
X168602Y52500D02*
D03*
X161713D02*
D03*
X134547Y165000D02*
D03*
X127657D02*
D03*
X142657Y185000D02*
D03*
X149547D02*
D03*
X134547Y145000D02*
D03*
X127657D02*
D03*
X142657Y165000D02*
D03*
X149547D02*
D03*
X142657Y175000D02*
D03*
X149547D02*
D03*
X134547Y155000D02*
D03*
X127657D02*
D03*
X149547Y195000D02*
D03*
X142657D02*
D03*
Y155000D02*
D03*
X149547D02*
D03*
Y145000D02*
D03*
X142657D02*
D03*
X210768Y170000D02*
D03*
X217657D02*
D03*
X267657Y92500D02*
D03*
X274547D02*
D03*
X190157Y97500D02*
D03*
X197047D02*
D03*
X88819Y120000D02*
D03*
X81929D02*
D03*
X267657Y112500D02*
D03*
X274547D02*
D03*
X267657Y122500D02*
D03*
X274547D02*
D03*
D45*
X77658Y298248D02*
D03*
X72658D02*
D03*
X67658D02*
D03*
X62657D02*
D03*
X57657D02*
D03*
X52658D02*
D03*
X47657D02*
D03*
X42658D02*
D03*
X77658Y316752D02*
D03*
X72658D02*
D03*
X67658D02*
D03*
X62657D02*
D03*
X57657D02*
D03*
X52658D02*
D03*
X47657D02*
D03*
X42658D02*
D03*
X267500Y298248D02*
D03*
X262500D02*
D03*
X257500D02*
D03*
X252500D02*
D03*
X247500D02*
D03*
X242500D02*
D03*
X237500D02*
D03*
X232500D02*
D03*
X267500Y316752D02*
D03*
X262500D02*
D03*
X257500D02*
D03*
X252500D02*
D03*
X247500D02*
D03*
X242500D02*
D03*
X237500D02*
D03*
X232500D02*
D03*
D46*
X52658Y342500D02*
D03*
Y349390D02*
D03*
X92658Y342500D02*
D03*
Y349390D02*
D03*
X222500Y342500D02*
D03*
Y349390D02*
D03*
X242500Y342500D02*
D03*
Y349390D02*
D03*
X272500D02*
D03*
Y342500D02*
D03*
X282500Y349390D02*
D03*
Y342500D02*
D03*
X252500Y349390D02*
D03*
Y342500D02*
D03*
X262500Y349390D02*
D03*
Y342500D02*
D03*
X232500Y349390D02*
D03*
Y342500D02*
D03*
X72658Y349390D02*
D03*
Y342500D02*
D03*
X82657Y349390D02*
D03*
Y342500D02*
D03*
X62657Y349390D02*
D03*
Y342500D02*
D03*
X42658Y349390D02*
D03*
Y342500D02*
D03*
X32658Y349390D02*
D03*
Y342500D02*
D03*
X135158Y66890D02*
D03*
Y60000D02*
D03*
D47*
X165650Y267500D02*
D03*
X152657D02*
D03*
X165650Y277500D02*
D03*
X152657D02*
D03*
X217657Y180000D02*
D03*
X204665D02*
D03*
D48*
X215158Y71732D02*
D03*
Y53268D02*
D03*
D49*
X191162Y127500D02*
D03*
X197658D02*
D03*
Y117500D02*
D03*
X191162D02*
D03*
X217657Y160000D02*
D03*
X211161D02*
D03*
X66290Y120029D02*
D03*
X72786D02*
D03*
X160177Y122199D02*
D03*
X153681D02*
D03*
X222657Y125000D02*
D03*
X229153D02*
D03*
X74410Y195000D02*
D03*
X80905D02*
D03*
X234409D02*
D03*
X240905D02*
D03*
X46161Y257500D02*
D03*
X52658D02*
D03*
X152500Y287500D02*
D03*
X146004D02*
D03*
X199153Y257500D02*
D03*
X192657D02*
D03*
X267657Y102500D02*
D03*
X274153D02*
D03*
D50*
X177657Y60000D02*
D03*
Y66496D02*
D03*
X32500Y304252D02*
D03*
Y310748D02*
D03*
X225000Y304252D02*
D03*
Y310748D02*
D03*
D51*
X137657Y32500D02*
D03*
X112248D02*
D03*
X203067D02*
D03*
X177657D02*
D03*
M02*
